<svg width="42" height="46" viewBox="0 0 42 46" fill="none" xmlns="http://www.w3.org/2000/svg">
<g filter="url(#filter0_d)">
<path fill-rule="evenodd" clip-rule="evenodd" d="M37.8002 21C37.8002 25.4556 36.0302 29.7288 32.8796 32.8794C29.729 36.03 25.4558 37.8 21.0002 37.8C16.5446 37.8 12.2714 36.03 9.1208 32.8794C5.97019 29.7288 4.2002 25.4556 4.2002 21C4.2002 16.5444 5.97019 12.2712 9.1208 9.1206C12.2714 5.96999 16.5446 4.2 21.0002 4.2C25.4558 4.2 29.729 5.96999 32.8796 9.1206C36.0302 12.2712 37.8002 16.5444 37.8002 21V21ZM23.1002 12.6C23.1002 13.157 22.8789 13.6911 22.4851 14.0849C22.0913 14.4787 21.5571 14.7 21.0002 14.7C20.4432 14.7 19.9091 14.4787 19.5153 14.0849C19.1214 13.6911 18.9002 13.157 18.9002 12.6C18.9002 12.043 19.1214 11.5089 19.5153 11.1151C19.9091 10.7212 20.4432 10.5 21.0002 10.5C21.5571 10.5 22.0913 10.7212 22.4851 11.1151C22.8789 11.5089 23.1002 12.043 23.1002 12.6ZM18.9002 18.9C18.3432 18.9 17.8091 19.1212 17.4153 19.5151C17.0214 19.9089 16.8002 20.443 16.8002 21C16.8002 21.557 17.0214 22.0911 17.4153 22.4849C17.8091 22.8787 18.3432 23.1 18.9002 23.1V29.4C18.9002 29.957 19.1214 30.4911 19.5153 30.8849C19.9091 31.2787 20.4432 31.5 21.0002 31.5H23.1002C23.6571 31.5 24.1913 31.2787 24.5851 30.8849C24.9789 30.4911 25.2002 29.957 25.2002 29.4C25.2002 28.843 24.9789 28.3089 24.5851 27.9151C24.1913 27.5212 23.6571 27.3 23.1002 27.3V21C23.1002 20.443 22.8789 19.9089 22.4851 19.5151C22.0913 19.1212 21.5571 18.9 21.0002 18.9H18.9002Z" fill="#08B952"/>
</g>
<defs>
<filter id="filter0_d" x="-4" y="0" width="50" height="50" filterUnits="userSpaceOnUse" color-interpolation-filters="sRGB">
<feFlood flood-opacity="0" result="BackgroundImageFix"/>
<feColorMatrix in="SourceAlpha" type="matrix" values="0 0 0 0 0 0 0 0 0 0 0 0 0 0 0 0 0 0 127 0"/>
<feOffset dy="4"/>
<feGaussianBlur stdDeviation="2"/>
<feColorMatrix type="matrix" values="0 0 0 0 0 0 0 0 0 0 0 0 0 0 0 0 0 0 0.25 0"/>
<feBlend mode="normal" in2="BackgroundImageFix" result="effect1_dropShadow"/>
<feBlend mode="normal" in="SourceGraphic" in2="effect1_dropShadow" result="shape"/>
</filter>
</defs>
</svg>
