<svg viewBox="0 0 400 400" fill="none" xmlns="http://www.w3.org/2000/svg">
<path d="M199.24 388.84C303.339 388.84 387.728 340.118 387.728 280.016C387.728 219.914 303.339 171.192 199.24 171.192C95.141 171.192 10.752 219.914 10.752 280.016C10.752 340.118 95.141 388.84 199.24 388.84Z" fill="#F0F0F0"/>
<path d="M307.488 317.776C295.128 310.64 295.128 299.072 307.488 291.936C319.848 284.8 339.888 284.8 352.248 291.936C364.608 299.072 364.608 310.64 352.248 317.776C339.888 324.912 319.848 324.912 307.488 317.776Z" fill="#E0E0E0"/>
<path d="M56.096 318.768L23.584 300C21.752 298.944 21.752 297.224 23.584 296.168L212.696 186.984C213.724 186.463 214.86 186.192 216.012 186.192C217.164 186.192 218.3 186.463 219.328 186.984L251.848 205.752C253.68 206.808 253.68 208.528 251.848 209.584L62.736 318.768C61.7068 319.289 60.5695 319.56 59.416 319.56C58.2625 319.56 57.1252 319.289 56.096 318.768Z" fill="#E0E0E0"/>
<path d="M172.96 285.312L200.912 269.152C203.792 267.488 205.232 265.312 205.232 263.128C205.232 260.944 205.232 259.24 205.232 259.24L176.24 242.888C175.43 242.364 174.756 241.656 174.272 240.822C173.788 239.988 173.508 239.051 173.456 238.088V203.616L124.656 231.824V266.28C124.712 267.242 124.993 268.178 125.477 269.011C125.96 269.845 126.633 270.553 127.44 271.08L152.112 285.288C157.856 288.64 167.2 288.64 172.96 285.312Z" fill="#40FF90"/>
<g opacity="0.6">
<path opacity="0.6" d="M172.96 285.312L200.912 269.152C203.792 267.488 205.232 265.312 205.232 263.128C205.232 260.944 205.232 259.24 205.232 259.24L176.24 242.888C175.43 242.364 174.756 241.656 174.272 240.822C173.788 239.988 173.508 239.051 173.456 238.088V203.616L124.656 231.824V266.28C124.712 267.242 124.993 268.178 125.477 269.011C125.96 269.845 126.633 270.553 127.44 271.08L152.112 285.288C157.856 288.64 167.2 288.64 172.96 285.312Z" fill="black"/>
</g>
<path opacity="0.3" d="M136.36 272.384V276.256L127.416 271.096C126.609 270.57 125.937 269.861 125.455 269.027C124.973 268.194 124.693 267.258 124.64 266.296V231.824L133.936 226.456C134.128 228.816 134.336 231.256 134.536 233.656L128 237.416V264.336C128.052 265.299 128.331 266.236 128.815 267.071C129.299 267.905 129.974 268.613 130.784 269.136L136.36 272.384Z" fill="black"/>
<path d="M128 264.344C128.055 265.306 128.336 266.242 128.819 267.076C129.303 267.91 129.976 268.618 130.784 269.144L152.08 281.416C157.84 284.736 167.184 284.744 172.952 281.416L200.952 265.256C206.72 261.928 206.72 256.536 200.952 253.208L179.64 240.936C178.834 240.409 178.163 239.7 177.681 238.866C177.198 238.033 176.919 237.098 176.864 236.136V209.208L128.064 237.416L128 264.344Z" fill="#40FF90"/>
<path opacity="0.3" d="M128 264.344C128.055 265.306 128.336 266.242 128.819 267.076C129.303 267.91 129.976 268.618 130.784 269.144L152.08 281.416C157.84 284.736 167.184 284.744 172.952 281.416L200.952 265.256C206.72 261.928 206.72 256.536 200.952 253.208L179.64 240.936C178.834 240.409 178.163 239.7 177.681 238.866C177.198 238.033 176.919 237.098 176.864 236.136V209.208L128.064 237.416L128 264.344Z" fill="black"/>
<path opacity="0.5" d="M185.28 244.224L179.608 240.952C178.802 240.425 178.131 239.716 177.649 238.882C177.166 238.049 176.887 237.114 176.832 236.152V209.208L128.032 237.416V264.344C128.087 265.306 128.368 266.242 128.851 267.076C129.335 267.91 130.008 268.618 130.816 269.144L136.416 272.344L185.28 244.224Z" fill="black"/>
<path d="M205.24 259.248V263.136C205.24 265.32 203.792 267.488 200.92 269.16L172.92 285.312C169.856 286.948 166.433 287.797 162.96 287.784V283.912C166.433 283.925 169.856 283.076 172.92 281.44L200.92 265.272C203.792 263.616 205.24 261.432 205.24 259.248Z" fill="#40FF90"/>
<path opacity="0.5" d="M205.24 259.248V263.136C205.24 265.32 203.792 267.488 200.92 269.16L172.92 285.312C169.856 286.948 166.433 287.797 162.96 287.784V283.912C166.433 283.925 169.856 283.076 172.92 281.44L200.92 265.272C203.792 263.616 205.24 261.432 205.24 259.248Z" fill="black"/>
<path d="M49.6 297.808C50.655 298.318 51.8149 298.572 52.9863 298.551C54.1577 298.531 55.3078 298.235 56.344 297.688L245.144 188.688C246.156 188.028 246.999 187.138 247.604 186.092C248.208 185.045 248.558 183.871 248.624 182.664V29.928C248.588 28.7539 248.275 27.605 247.71 26.5748C247.146 25.5446 246.346 24.6624 245.376 24C244.322 23.4899 243.163 23.2356 241.993 23.2579C240.822 23.2801 239.674 23.5782 238.64 24.128L49.84 133.16C48.8312 133.824 47.9937 134.718 47.3959 135.768C46.7981 136.817 46.4568 137.993 46.4 139.2V291.912C46.4357 293.076 46.7438 294.216 47.2995 295.24C47.8552 296.264 48.6431 297.144 49.6 297.808Z" fill="#40FF90"/>
<path d="M56.368 297.68L245.168 188.68C246.182 188.021 247.025 187.132 247.63 186.085C248.235 185.038 248.584 183.863 248.648 182.656V29.928C248.648 27.712 247.088 26.808 245.168 27.92L56.368 136.92C55.3552 137.58 54.5123 138.469 53.9076 139.516C53.303 140.563 52.9536 141.737 52.888 142.944V295.672C52.888 297.888 54.448 298.792 56.368 297.68Z" fill="#40FF90"/>
<path opacity="0.5" d="M56.368 297.68L245.168 188.68C246.182 188.021 247.025 187.132 247.63 186.085C248.235 185.038 248.584 183.863 248.648 182.656V29.928C248.648 27.712 247.088 26.808 245.168 27.92L56.368 136.92C55.3552 137.58 54.5123 138.469 53.9076 139.516C53.303 140.563 52.9536 141.737 52.888 142.944V295.672C52.888 297.888 54.448 298.792 56.368 297.68Z" fill="black"/>
<path d="M55.856 301.648C54.866 302.08 53.794 302.292 52.714 302.27C51.634 302.248 50.5716 301.992 49.6 301.52C48.641 300.854 47.8517 299.972 47.2959 298.945C46.7401 297.918 46.4332 296.775 46.4 295.608V281.704L52.92 285.48V299.384C52.88 301.408 54.168 302.328 55.856 301.648Z" fill="#40FF90"/>
<path opacity="0.5" d="M55.856 301.648C54.866 302.08 53.794 302.292 52.714 302.27C51.634 302.248 50.5716 301.992 49.6 301.52C48.641 300.854 47.8517 299.972 47.2959 298.945C46.7401 297.918 46.4332 296.775 46.4 295.608V281.704L52.92 285.48V299.384C52.88 301.408 54.168 302.328 55.856 301.648Z" fill="black"/>
<path d="M52.88 285.48V299.384C52.88 301.6 54.48 302.496 56.36 301.392L245.16 192.392C246.168 191.735 247.008 190.85 247.613 189.81C248.217 188.769 248.569 187.601 248.64 186.4V172.432L52.88 285.48Z" fill="#40FF90"/>
<path opacity="0.3" d="M52.888 285.448V299.384C52.888 301.6 54.488 302.496 56.368 301.392L245.168 192.392C246.175 191.734 247.013 190.849 247.616 189.809C248.219 188.768 248.57 187.601 248.64 186.4V172.432L52.888 285.448Z" fill="black"/>
<path d="M59.408 268V145.112C59.4453 144.388 59.6531 143.683 60.0146 143.055C60.376 142.426 60.8809 141.892 61.488 141.496L240 38.4C241.152 37.736 242.088 38.272 242.088 39.6V162.552C242.049 163.277 241.84 163.982 241.477 164.61C241.114 165.238 240.608 165.772 240 166.168L61.496 269.24C60.344 269.904 59.408 269.36 59.408 268Z" fill="#40FF90"/>
<path d="M59.408 268V145.112C59.4453 144.388 59.6531 143.683 60.0146 143.055C60.376 142.426 60.8809 141.892 61.488 141.496L240 38.4C241.152 37.736 242.088 38.272 242.088 39.6V162.552C242.049 163.277 241.84 163.982 241.477 164.61C241.114 165.238 240.608 165.772 240 166.168L61.496 269.24C60.344 269.904 59.408 269.36 59.408 268Z" fill="#263238"/>
<path d="M150.76 233.384C149.81 234.002 149.019 234.836 148.452 235.817C147.885 236.799 147.557 237.9 147.496 239.032C147.496 241.112 148.96 241.96 150.76 240.92C151.711 240.301 152.503 239.466 153.07 238.483C153.637 237.5 153.964 236.397 154.024 235.264C154.024 233.184 152.56 232.344 150.76 233.384Z" fill="#40FF90"/>
<path opacity="0.7" d="M53.912 139.504C53.292 140.546 52.9376 141.725 52.88 142.936V285.48L46.4 281.704V139.2C46.442 137.985 46.7945 136.8 47.424 135.76L53.912 139.504Z" fill="black"/>
<path opacity="0.3" d="M248.608 29.352C248.36 27.56 246.912 26.952 245.16 27.92L56.36 136.92C55.3364 137.56 54.4915 138.449 53.904 139.504L47.376 135.736C47.9674 134.681 48.8148 133.793 49.84 133.152L238.64 24.16C239.675 23.6102 240.825 23.312 241.997 23.2898C243.168 23.2675 244.329 23.5218 245.384 24.032C246.271 24.6363 247.018 25.424 247.574 26.3418C248.13 27.2596 248.483 28.2861 248.608 29.352Z" fill="black"/>
<path d="M258.792 48.1522C258.512 48.0115 258.198 47.9498 257.885 47.9737C257.572 47.9977 257.272 48.1064 257.016 48.2882L78.872 151.2C78.1691 151.665 77.5856 152.289 77.1686 153.022C76.7517 153.754 76.513 154.574 76.472 155.416V277.552C76.4471 277.964 76.529 278.376 76.7098 278.748C76.8905 279.119 77.1641 279.437 77.504 279.672C77.896 279.888 79.992 281.104 80.616 281.44C80.8368 281.553 81.0835 281.604 81.3309 281.59C81.5782 281.576 81.8174 281.497 82.024 281.36L260.128 178.448C260.831 177.983 261.414 177.359 261.831 176.627C262.248 175.894 262.487 175.074 262.528 174.232V51.4642C262.564 51.1539 262.512 50.8399 262.38 50.5573C262.247 50.2746 262.038 50.0346 261.776 49.8642C261.376 49.6002 259.24 48.4162 258.792 48.1522Z" fill="#40FF90"/>
<path d="M81.984 152.928L260.136 50.056C261.48 49.256 262.536 49.912 262.536 51.464V174.232C262.495 175.074 262.256 175.894 261.839 176.627C261.422 177.359 260.839 177.983 260.136 178.448L81.984 281.36C80.64 282.16 79.584 280.872 79.584 279.32V157.144C79.6263 156.302 79.8654 155.483 80.2823 154.75C80.6991 154.018 81.282 153.394 81.984 152.928Z" fill="#FAFAFA"/>
<path d="M261.224 50.52C261.696 50.52 261.768 51.112 261.768 51.464V174.232C261.725 174.937 261.518 175.622 261.164 176.233C260.81 176.844 260.318 177.364 259.728 177.752L81.6 280.664C81.4805 280.741 81.3424 280.786 81.2 280.792C80.752 280.792 80.4 280.104 80.4 279.32V157.144C80.4387 156.439 80.6392 155.753 80.986 155.138C81.3329 154.524 81.8168 153.997 82.4 153.6L260.536 50.744C260.742 50.611 260.979 50.5338 261.224 50.52ZM261.224 49.72C260.839 49.7364 260.464 49.8522 260.136 50.056L81.984 152.928C81.282 153.394 80.6991 154.018 80.2823 154.75C79.8654 155.483 79.6263 156.302 79.584 157.144V279.32C79.584 280.552 80.272 281.592 81.184 281.592C81.4665 281.587 81.7425 281.507 81.984 281.36L260.128 178.448C260.831 177.983 261.415 177.359 261.831 176.627C262.248 175.894 262.487 175.074 262.528 174.232V51.464C262.528 50.36 261.984 49.72 261.184 49.72H261.224Z" fill="#E0E0E0"/>
<path d="M77.456 279.672C77.72 279.808 79.616 280.888 80.448 281.368C80.1493 281.12 79.9126 280.806 79.7571 280.45C79.6015 280.095 79.5313 279.708 79.552 279.32V165.12L76.432 163.296V277.552C76.4062 277.964 76.4868 278.375 76.6662 278.746C76.8456 279.118 77.1176 279.436 77.456 279.672Z" fill="#F0F0F0"/>
<path d="M262.568 51.44C262.568 49.904 261.472 49.28 260.168 50.056L81.984 152.928C81.282 153.394 80.6991 154.018 80.2823 154.75C79.8654 155.483 79.6263 156.302 79.584 157.144V165.144L262.568 59.44V51.44Z" fill="#40FF90"/>
<g opacity="0.4">
<path opacity="0.4" d="M260.136 50.056L81.984 152.92C81.269 153.371 80.68 153.996 80.272 154.736L77.176 152.936C77.5833 152.222 78.1673 151.624 78.872 151.2L257.016 48.288C257.271 48.1049 257.571 47.9948 257.884 47.9694C258.197 47.9441 258.511 48.0044 258.792 48.144C259.224 48.416 261.248 49.56 261.768 49.84C261.499 49.7402 261.21 49.7078 260.925 49.7454C260.641 49.7831 260.37 49.8897 260.136 50.056Z" fill="white"/>
</g>
<path opacity="0.15" d="M76.4322 163.304V155.376C76.4651 154.512 76.7214 153.671 77.1762 152.936L80.2802 154.728C79.8319 155.451 79.5809 156.278 79.5522 157.128V165.128L76.4322 163.304Z" fill="black"/>
<path d="M225 143.536L118.304 205.136C117.785 205.473 117.353 205.927 117.043 206.462C116.733 206.998 116.554 207.598 116.52 208.216V238.808C116.554 239.426 116.733 240.026 117.043 240.562C117.353 241.097 117.785 241.551 118.304 241.888L121.416 243.68C121.969 243.96 122.58 244.106 123.2 244.106C123.82 244.106 124.431 243.96 124.984 243.68L231.664 182.08C232.183 181.742 232.615 181.286 232.925 180.749C233.235 180.213 233.414 179.611 233.448 178.992V148.392C233.414 147.774 233.235 147.174 232.925 146.638C232.615 146.103 232.183 145.649 231.664 145.312L228.544 143.52C227.993 143.245 227.386 143.103 226.77 143.106C226.155 143.108 225.548 143.256 225 143.536Z" fill="#40FF90"/>
<path opacity="0.5" d="M233.448 148.12C233.32 147.2 232.576 146.864 231.68 147.384L124.984 208.984C124.458 209.311 124.025 209.768 123.728 210.312L117.048 206.456C117.347 205.921 117.777 205.47 118.296 205.144L225 143.544C225.552 143.264 226.161 143.118 226.78 143.118C227.399 143.118 228.009 143.264 228.56 143.544L231.68 145.336C232.156 145.648 232.559 146.057 232.864 146.537C233.169 147.017 233.368 147.557 233.448 148.12Z" fill="white"/>
<path d="M124.68 243.832C124.158 244.038 123.598 244.131 123.037 244.107C122.476 244.082 121.926 243.939 121.424 243.688L118.304 241.896C117.786 241.558 117.355 241.104 117.045 240.569C116.735 240.034 116.555 239.433 116.52 238.816V208.224C116.544 207.6 116.726 206.991 117.048 206.456L123.728 210.312C123.403 210.841 123.221 211.444 123.2 212.064V242.664C123.2 243.68 123.84 244.152 124.68 243.832Z" fill="#263238"/>
<path d="M124.984 208.984L231.68 147.384C232.664 146.816 233.464 147.272 233.464 148.408V179.008C233.43 179.627 233.251 180.229 232.941 180.765C232.631 181.302 232.199 181.758 231.68 182.096L125 243.696C124.016 244.264 123.216 243.8 123.216 242.664V212.072C123.248 211.455 123.425 210.854 123.732 210.317C124.039 209.781 124.468 209.324 124.984 208.984Z" fill="#40FF90"/>
<path d="M196.712 159.872L118.312 205.144C117.793 205.47 117.363 205.921 117.064 206.456L123.744 210.312C124.041 209.768 124.474 209.311 125 208.984L203.4 163.72L196.712 159.872Z" fill="#455A64"/>
<path d="M203.384 163.72L124.984 208.984C124.465 209.322 124.033 209.778 123.723 210.315C123.413 210.851 123.234 211.453 123.2 212.072V242.656C123.2 243.792 124 244.256 124.984 243.688L203.384 198.424V163.72Z" fill="#37474F"/>
<path d="M143.064 205.256L183.52 181.904C185.192 180.936 186.552 181.624 186.552 183.44C186.477 184.46 186.163 185.448 185.635 186.324C185.107 187.199 184.379 187.938 183.512 188.48L143.064 211.84C141.392 212.808 140.024 212.12 140.024 210.304C140.099 209.283 140.414 208.294 140.942 207.418C141.47 206.541 142.197 205.8 143.064 205.256Z" fill="#40FF90"/>
<path d="M151.352 212.992C151.36 212.983 151.369 212.977 151.379 212.972C151.389 212.967 151.401 212.965 151.412 212.965C151.423 212.965 151.435 212.967 151.445 212.972C151.455 212.977 151.465 212.983 151.472 212.992C151.508 213.046 151.525 213.111 151.52 213.176V217.728C151.521 218.168 151.483 218.607 151.408 219.04C151.342 219.436 151.229 219.823 151.072 220.192C150.929 220.53 150.74 220.848 150.512 221.136C150.287 221.403 150.016 221.628 149.712 221.8C149.474 221.955 149.196 222.038 148.912 222.04C148.803 222.031 148.698 222.001 148.601 221.95C148.505 221.899 148.42 221.829 148.352 221.744C148.176 221.509 148.061 221.234 148.016 220.944C147.94 220.557 147.905 220.163 147.912 219.768V215.208C147.912 215.128 147.928 215.049 147.96 214.976C147.98 214.91 148.022 214.853 148.08 214.816L148.584 214.52C148.6 214.505 148.622 214.496 148.644 214.496C148.666 214.496 148.688 214.505 148.704 214.52C148.741 214.574 148.758 214.639 148.752 214.704V219.2C148.746 219.447 148.77 219.695 148.824 219.936C148.846 220.09 148.913 220.235 149.016 220.352C149.052 220.395 149.098 220.429 149.149 220.451C149.2 220.473 149.256 220.483 149.312 220.48C149.449 220.471 149.581 220.427 149.696 220.352C149.838 220.267 149.968 220.162 150.08 220.04C150.205 219.896 150.307 219.734 150.384 219.56C150.474 219.355 150.541 219.14 150.584 218.92C150.631 218.656 150.652 218.388 150.648 218.12V213.616C150.651 213.536 150.67 213.457 150.704 213.384C150.724 213.318 150.766 213.261 150.824 213.224L151.352 212.992Z" fill="#FAFAFA"/>
<path d="M154.488 217.296C154.492 217.237 154.478 217.179 154.448 217.128C154.429 217.107 154.405 217.091 154.379 217.081C154.352 217.072 154.324 217.068 154.296 217.072C154.198 217.059 154.098 217.059 154 217.072L153.536 217.16C153.386 217.197 153.23 217.197 153.08 217.16C152.963 217.122 152.861 217.046 152.792 216.944C152.714 216.814 152.662 216.67 152.64 216.52C152.562 216.092 152.562 215.652 152.64 215.224C152.7 214.978 152.786 214.74 152.896 214.512C153.006 214.285 153.14 214.07 153.296 213.872C153.447 213.683 153.632 213.523 153.84 213.4C154.008 213.297 154.196 213.232 154.392 213.208C154.534 213.193 154.677 213.224 154.8 213.296C154.917 213.368 155.01 213.474 155.064 213.6C155.129 213.749 155.164 213.909 155.168 214.072C155.176 214.152 155.16 214.233 155.12 214.304C155.1 214.37 155.058 214.427 155 214.464L154.52 214.744C154.498 214.757 154.473 214.763 154.448 214.763C154.423 214.763 154.398 214.757 154.376 214.744L154.272 214.664C154.231 214.631 154.181 214.612 154.128 214.608C154.025 214.619 153.926 214.655 153.84 214.712C153.714 214.788 153.603 214.885 153.512 215C153.415 215.126 153.364 215.281 153.368 215.44C153.357 215.501 153.357 215.563 153.368 215.624C153.383 215.647 153.403 215.665 153.427 215.679C153.451 215.693 153.477 215.702 153.504 215.704C153.591 215.719 153.681 215.719 153.768 215.704L154.216 215.624C154.592 215.552 154.848 215.624 155.016 215.832C155.193 216.128 155.274 216.472 155.248 216.816C155.246 217.054 155.214 217.29 155.152 217.52C155.089 217.769 154.998 218.011 154.88 218.24C154.762 218.477 154.615 218.697 154.44 218.896C154.274 219.09 154.077 219.255 153.856 219.384C153.68 219.496 153.48 219.565 153.272 219.584C153.122 219.589 152.973 219.547 152.848 219.464C152.724 219.38 152.63 219.26 152.576 219.12C152.511 218.968 152.479 218.805 152.48 218.64C152.473 218.557 152.489 218.474 152.528 218.4C152.548 218.334 152.59 218.277 152.648 218.24L153.128 217.96C153.192 217.96 153.24 217.92 153.272 217.96L153.376 218.072C153.397 218.096 153.423 218.115 153.452 218.129C153.481 218.143 153.512 218.151 153.544 218.152C153.657 218.153 153.766 218.116 153.856 218.048C154 217.966 154.13 217.861 154.24 217.736C154.294 217.67 154.34 217.598 154.376 217.52C154.433 217.457 154.471 217.379 154.488 217.296Z" fill="#FAFAFA"/>
<path d="M156.12 215.128C156.119 214.712 156.153 214.298 156.224 213.888C156.291 213.503 156.395 213.125 156.536 212.76C156.654 212.433 156.815 212.124 157.016 211.84C157.184 211.596 157.402 211.392 157.656 211.24C157.842 211.115 158.068 211.067 158.288 211.104C158.484 211.149 158.655 211.266 158.768 211.432C158.919 211.649 159.025 211.894 159.08 212.152C159.157 212.488 159.194 212.831 159.192 213.176V213.672C159.195 213.756 159.175 213.838 159.136 213.912C159.116 213.978 159.074 214.035 159.016 214.072L156.936 215.28C156.931 215.421 156.95 215.561 156.992 215.696C157.023 215.787 157.078 215.867 157.152 215.928C157.218 215.98 157.3 216.006 157.384 216C157.481 215.989 157.574 215.956 157.656 215.904C157.777 215.838 157.885 215.752 157.976 215.648C158.058 215.556 158.128 215.454 158.184 215.344C158.218 215.281 158.256 215.219 158.296 215.16C158.33 215.119 158.371 215.084 158.416 215.056L158.912 214.768C158.929 214.754 158.95 214.747 158.972 214.747C158.994 214.747 159.015 214.754 159.032 214.768C159.053 214.793 159.068 214.823 159.077 214.855C159.085 214.886 159.086 214.92 159.08 214.952C159.071 215.108 159.039 215.262 158.984 215.408C158.915 215.63 158.824 215.844 158.712 216.048C158.587 216.282 158.437 216.502 158.264 216.704C158.092 216.91 157.886 217.086 157.656 217.224C157.467 217.348 157.241 217.402 157.016 217.376C156.819 217.329 156.648 217.209 156.536 217.04C156.379 216.797 156.272 216.525 156.224 216.24C156.151 215.874 156.116 215.501 156.12 215.128ZM157.656 212.576C157.533 212.642 157.426 212.735 157.344 212.848C157.255 212.96 157.183 213.084 157.128 213.216C157.072 213.348 157.027 213.485 156.992 213.624C156.964 213.75 156.945 213.879 156.936 214.008L158.344 213.208C158.336 213.098 158.32 212.988 158.296 212.88C158.284 212.783 158.245 212.692 158.184 212.616C158.16 212.581 158.129 212.552 158.093 212.53C158.058 212.508 158.018 212.494 157.976 212.488C157.862 212.478 157.749 212.51 157.656 212.576Z" fill="#FAFAFA"/>
<path d="M161.704 210.344C161.462 210.482 161.271 210.696 161.16 210.952C161.036 211.29 160.978 211.648 160.992 212.008V214.896C160.993 214.979 160.977 215.06 160.944 215.136C160.924 215.202 160.882 215.259 160.824 215.296L160.352 215.568C160.345 215.577 160.335 215.583 160.325 215.588C160.315 215.593 160.303 215.595 160.292 215.595C160.281 215.595 160.269 215.593 160.259 215.588C160.249 215.583 160.24 215.577 160.232 215.568C160.196 215.514 160.179 215.449 160.184 215.384V210.208C160.184 210.126 160.201 210.044 160.232 209.968C160.254 209.903 160.296 209.848 160.352 209.808L160.824 209.536C160.84 209.521 160.862 209.512 160.884 209.512C160.906 209.512 160.928 209.521 160.944 209.536C160.981 209.587 160.998 209.649 160.992 209.712V209.968C161.087 209.753 161.205 209.55 161.344 209.36C161.471 209.185 161.635 209.04 161.824 208.936L162.112 208.768C162.127 208.753 162.147 208.745 162.168 208.745C162.189 208.745 162.209 208.753 162.224 208.768C162.263 208.821 162.282 208.886 162.28 208.952V209.68C162.279 209.763 162.26 209.845 162.224 209.92C162.204 209.983 162.165 210.039 162.112 210.08L161.704 210.344Z" fill="#FAFAFA"/>
<path d="M167.672 209.96C167.679 209.951 167.689 209.945 167.699 209.94C167.709 209.935 167.721 209.933 167.732 209.933C167.743 209.933 167.755 209.935 167.765 209.94C167.775 209.945 167.784 209.951 167.792 209.96C167.828 210.014 167.845 210.079 167.84 210.144V210.944C167.84 211.026 167.823 211.108 167.792 211.184C167.765 211.243 167.723 211.295 167.672 211.336L164.936 212.936C164.92 212.951 164.898 212.96 164.876 212.96C164.854 212.96 164.832 212.951 164.816 212.936C164.78 212.885 164.763 212.822 164.768 212.76V205.56C164.768 205.478 164.785 205.396 164.816 205.32C164.838 205.258 164.881 205.204 164.936 205.168L165.44 204.872C165.456 204.857 165.478 204.848 165.5 204.848C165.522 204.848 165.544 204.857 165.56 204.872C165.596 204.923 165.613 204.986 165.608 205.048V211.136L167.672 209.96Z" fill="#FAFAFA"/>
<path d="M170.128 204.04C170.308 203.915 170.526 203.856 170.744 203.872C170.931 203.887 171.106 203.973 171.232 204.112C171.381 204.283 171.49 204.485 171.552 204.704C171.638 204.987 171.686 205.28 171.696 205.576C171.696 205.64 171.696 205.728 171.696 205.832V206.448C171.696 206.544 171.696 206.632 171.696 206.704C171.68 207.052 171.632 207.397 171.552 207.736C171.478 208.066 171.371 208.388 171.232 208.696C171.105 208.983 170.941 209.252 170.744 209.496C170.575 209.717 170.366 209.904 170.128 210.048C169.943 210.168 169.725 210.227 169.504 210.216C169.319 210.2 169.148 210.114 169.024 209.976C168.871 209.811 168.761 209.61 168.704 209.392C168.619 209.109 168.57 208.816 168.56 208.52C168.56 208.456 168.56 208.376 168.56 208.272V207.656C168.56 207.552 168.56 207.464 168.56 207.4C168.569 207.05 168.615 206.701 168.696 206.36C168.774 206.028 168.884 205.703 169.024 205.392C169.151 205.107 169.312 204.838 169.504 204.592C169.674 204.369 169.886 204.181 170.128 204.04ZM170.88 206.104C170.88 205.927 170.85 205.751 170.792 205.584C170.762 205.482 170.701 205.392 170.616 205.328C170.548 205.282 170.466 205.262 170.384 205.272C170.293 205.289 170.206 205.325 170.128 205.376C170.034 205.428 169.948 205.492 169.872 205.568C169.78 205.663 169.702 205.771 169.64 205.888C169.56 206.034 169.5 206.19 169.464 206.352C169.412 206.556 169.379 206.765 169.368 206.976C169.368 207.04 169.368 207.112 169.368 207.2V207.768C169.368 207.856 169.368 207.928 169.368 207.976C169.375 208.153 169.408 208.328 169.464 208.496C169.493 208.598 169.555 208.688 169.64 208.752C169.673 208.776 169.711 208.792 169.751 208.8C169.791 208.808 169.832 208.808 169.872 208.8C169.963 208.785 170.05 208.752 170.128 208.704C170.221 208.65 170.307 208.586 170.384 208.512C170.473 208.415 170.551 208.307 170.616 208.192C170.693 208.045 170.752 207.889 170.792 207.728C170.844 207.524 170.874 207.315 170.88 207.104C170.885 207.029 170.885 206.955 170.88 206.88V206.32C170.885 206.248 170.885 206.176 170.88 206.104Z" fill="#FAFAFA"/>
<path d="M174.144 208.72C174.246 208.657 174.338 208.579 174.416 208.488C174.512 208.375 174.596 208.252 174.664 208.12C174.744 207.959 174.805 207.79 174.848 207.616C174.897 207.42 174.921 207.218 174.92 207.016V206.608C174.92 206.688 174.84 206.784 174.784 206.896C174.729 207.013 174.665 207.125 174.592 207.232C174.508 207.344 174.418 207.451 174.32 207.552C174.22 207.657 174.104 207.746 173.976 207.816C173.894 207.872 173.801 207.911 173.703 207.93C173.606 207.949 173.505 207.949 173.408 207.928C173.23 207.872 173.077 207.756 172.976 207.6C172.846 207.393 172.751 207.166 172.696 206.928C172.628 206.626 172.59 206.318 172.584 206.008C172.584 205.904 172.584 205.776 172.584 205.624C172.584 205.472 172.584 205.344 172.584 205.232C172.594 204.88 172.631 204.53 172.696 204.184C172.762 203.844 172.855 203.509 172.976 203.184C173.089 202.902 173.234 202.633 173.408 202.384C173.556 202.163 173.749 201.978 173.976 201.84C174.082 201.776 174.199 201.73 174.32 201.704C174.41 201.687 174.502 201.687 174.592 201.704C174.663 201.724 174.729 201.759 174.784 201.808C174.835 201.847 174.881 201.893 174.92 201.944V201.688C174.92 201.606 174.937 201.524 174.968 201.448C174.99 201.386 175.033 201.332 175.088 201.296L175.56 201.016C175.576 201.001 175.598 200.992 175.62 200.992C175.642 200.992 175.664 201.001 175.68 201.016C175.719 201.069 175.738 201.134 175.736 201.2V206.4C175.758 207.179 175.613 207.953 175.312 208.672C175.076 209.237 174.667 209.713 174.144 210.032C173.966 210.143 173.762 210.206 173.552 210.216C173.386 210.226 173.221 210.184 173.08 210.096C172.945 209.995 172.835 209.863 172.76 209.712C172.682 209.53 172.639 209.334 172.632 209.136C172.625 209.053 172.641 208.97 172.68 208.896C172.7 208.83 172.742 208.773 172.8 208.736L173.224 208.496C173.234 208.486 173.246 208.477 173.259 208.472C173.272 208.466 173.286 208.463 173.3 208.463C173.314 208.463 173.328 208.466 173.341 208.472C173.355 208.477 173.366 208.486 173.376 208.496C173.415 208.537 173.45 208.583 173.48 208.632C173.529 208.718 173.609 208.781 173.704 208.808C173.8 208.88 173.944 208.8 174.144 208.72ZM173.392 204.84C173.392 205.053 173.392 205.261 173.392 205.464C173.369 205.783 173.46 206.101 173.648 206.36C173.719 206.421 173.81 206.455 173.904 206.455C173.998 206.455 174.089 206.421 174.16 206.36C174.392 206.209 174.573 205.992 174.68 205.736C174.826 205.402 174.907 205.044 174.92 204.68C174.92 204.56 174.92 204.416 174.92 204.248C174.92 204.08 174.92 203.936 174.92 203.832C174.936 203.545 174.851 203.262 174.68 203.032C174.609 202.967 174.516 202.931 174.42 202.931C174.324 202.931 174.231 202.967 174.16 203.032C173.932 203.182 173.754 203.397 173.648 203.648C173.484 204.024 173.397 204.429 173.392 204.84Z" fill="#FAFAFA"/>
<path d="M177.6 197.736C177.616 197.723 177.636 197.716 177.656 197.716C177.676 197.716 177.696 197.723 177.712 197.736C177.754 197.788 177.774 197.854 177.768 197.92V198.792C177.769 198.875 177.749 198.958 177.712 199.032C177.69 199.092 177.651 199.145 177.6 199.184L177.064 199.496C177.057 199.505 177.047 199.511 177.037 199.516C177.027 199.521 177.015 199.523 177.004 199.523C176.993 199.523 176.981 199.521 176.971 199.516C176.961 199.511 176.952 199.505 176.944 199.496C176.923 199.472 176.907 199.444 176.898 199.414C176.888 199.384 176.885 199.352 176.888 199.32V198.448C176.888 198.365 176.907 198.282 176.944 198.208C176.966 198.146 177.009 198.092 177.064 198.056L177.6 197.736ZM177.736 205.248C177.736 205.328 177.72 205.407 177.688 205.48C177.663 205.543 177.621 205.598 177.568 205.64L177.088 205.912C177.081 205.92 177.073 205.927 177.063 205.932C177.053 205.936 177.043 205.939 177.032 205.939C177.021 205.939 177.011 205.936 177.001 205.932C176.991 205.927 176.983 205.92 176.976 205.912C176.934 205.86 176.914 205.794 176.92 205.728V200.552C176.919 200.469 176.939 200.386 176.976 200.312C176.999 200.25 177.037 200.195 177.088 200.152L177.568 199.88C177.584 199.865 177.606 199.856 177.628 199.856C177.65 199.856 177.672 199.865 177.688 199.88C177.724 199.931 177.741 199.994 177.736 200.056V205.248Z" fill="#FAFAFA"/>
<path d="M181.944 202.808C181.944 202.89 181.927 202.972 181.896 203.048C181.874 203.11 181.832 203.164 181.776 203.2L181.296 203.48C181.281 203.495 181.261 203.503 181.24 203.503C181.219 203.503 181.199 203.495 181.184 203.48C181.142 203.428 181.122 203.362 181.128 203.296V200.48C181.153 200.148 181.092 199.814 180.952 199.512C180.84 199.312 180.664 199.28 180.416 199.424C180.169 199.59 179.985 199.836 179.896 200.12C179.762 200.497 179.697 200.896 179.704 201.296V204.12C179.704 204.202 179.687 204.284 179.656 204.36C179.636 204.426 179.594 204.483 179.536 204.52L179.064 204.792C179.057 204.801 179.047 204.807 179.037 204.812C179.027 204.817 179.015 204.819 179.004 204.819C178.993 204.819 178.981 204.817 178.971 204.812C178.961 204.807 178.952 204.801 178.944 204.792C178.907 204.741 178.89 204.679 178.896 204.616V199.44C178.895 199.358 178.911 199.276 178.944 199.2C178.964 199.134 179.006 199.077 179.064 199.04L179.536 198.768C179.544 198.759 179.553 198.753 179.563 198.748C179.573 198.743 179.585 198.741 179.596 198.741C179.607 198.741 179.619 198.743 179.629 198.748C179.639 198.753 179.649 198.759 179.656 198.768C179.692 198.822 179.709 198.887 179.704 198.952V199.2C179.809 198.956 179.938 198.723 180.088 198.504C180.22 198.302 180.398 198.135 180.608 198.016C180.79 197.883 181.017 197.826 181.24 197.856C181.329 197.878 181.411 197.919 181.483 197.976C181.555 198.032 181.614 198.103 181.656 198.184C181.772 198.401 181.848 198.636 181.88 198.88C181.923 199.198 181.944 199.519 181.944 199.84V202.808Z" fill="#FAFAFA"/>
<path d="M222.296 179.52L214.528 184L215.736 173.104C214.8 172.608 214.208 171.4 214.208 169.664C214.208 166.568 216.096 162.976 218.416 161.664C220.736 160.352 222.616 161.744 222.616 164.864C222.568 166.7 222.044 168.491 221.096 170.064L222.296 179.52Z" fill="#455A64"/>
<path d="M222.304 179.52L215.464 175.576L214.528 184.008L222.304 179.52Z" fill="#37474F"/>
<path d="M218.4 161.64C216.708 162.783 215.447 164.458 214.816 166.4L221.08 170.016C222.028 168.443 222.552 166.652 222.6 164.816C222.616 161.72 220.736 160.304 218.4 161.64Z" fill="#37474F"/>
<path d="M180.64 125.36C177.976 123.824 174.304 124.04 170.24 126.384C162.128 131.072 155.552 142.456 155.552 151.824C155.552 156.528 157.216 159.824 159.888 161.344L165.064 164.352C167.72 165.888 171.392 165.664 175.464 163.32C183.576 158.64 190.152 147.248 190.152 137.88C190.152 133.2 188.504 129.88 185.848 128.384" fill="#40FF90"/>
<path d="M175.456 129.4C167.344 134.088 160.768 145.48 160.768 154.84C160.768 164.2 167.344 168.008 175.456 163.32C183.568 158.632 190.152 147.248 190.144 137.88C190.136 128.512 183.56 124.72 175.456 129.4Z" fill="#40FF90"/>
<path d="M183.56 150.184V151.256C181.617 154.725 178.829 157.647 175.456 159.752C172.296 161.568 169.44 161.768 167.344 160.608V158.4C167.451 156.103 168.107 153.865 169.257 151.873C170.407 149.881 172.016 148.194 173.952 146.952L176.088 145.72C177.976 144.632 179.816 144.488 181.256 145.328C182.696 146.168 183.56 147.936 183.56 150.184Z" fill="#40FF90"/>
<path opacity="0.4" d="M180.64 125.36L185.84 128.384C183.184 126.84 179.512 127.056 175.44 129.4C170.128 132.472 165.472 138.416 162.896 144.784L157.688 141.768C160.272 135.368 164.888 129.456 170.232 126.384C174.312 124.048 177.984 123.824 180.64 125.36Z" fill="white"/>
<path opacity="0.2" d="M164.88 164.232L159.896 161.344C157.224 159.824 155.56 156.544 155.56 151.824L160.768 154.848C160.8 159.408 162.336 162.656 164.88 164.232Z" fill="black"/>
<path opacity="0.1" d="M157.704 141.768L162.912 144.784C161.578 147.972 160.861 151.384 160.8 154.84L155.592 151.816C155.656 148.363 156.373 144.954 157.704 141.768Z" fill="black"/>
<path d="M173.6 145.216C173.104 145.221 172.615 145.094 172.184 144.848C171.665 144.502 171.248 144.022 170.98 143.458C170.711 142.895 170.599 142.27 170.656 141.648C170.724 140.19 171.14 138.77 171.869 137.507C172.599 136.243 173.62 135.172 174.848 134.384C175.341 133.99 175.942 133.754 176.571 133.707C177.201 133.661 177.83 133.805 178.376 134.121C178.922 134.437 179.36 134.911 179.633 135.48C179.906 136.05 180 136.688 179.904 137.312C179.835 138.769 179.418 140.189 178.689 141.452C177.96 142.716 176.939 143.787 175.712 144.576C175.077 144.972 174.348 145.193 173.6 145.216Z" fill="white"/>
<path d="M181.256 145.32C179.816 144.48 177.976 144.624 176.088 145.712L173.952 146.944C172.015 148.187 170.405 149.875 169.255 151.869C168.105 153.862 167.45 156.101 167.344 158.4V160.616C169.44 161.776 172.296 161.576 175.456 159.76C178.829 157.655 181.617 154.733 183.56 151.264V150.192C183.56 147.936 182.728 146.168 181.256 145.32Z" fill="white"/>
<path d="M345.72 283.72C345.72 283.72 346.784 274.376 351.432 267.12C356.08 259.864 362.464 255.344 368.424 254.872C374.384 254.4 379.2 259.888 372.824 263.672C366.448 267.456 355.12 271.28 349.904 285.36L345.72 283.72Z" fill="#40FF90"/>
<path opacity="0.1" d="M345.72 283.72C345.72 283.72 346.784 274.376 351.432 267.12C356.08 259.864 362.464 255.344 368.424 254.872C374.384 254.4 379.2 259.888 372.824 263.672C366.448 267.456 355.12 271.28 349.904 285.36L345.72 283.72Z" fill="black"/>
<path d="M347.472 281.288H347.408C347.33 281.256 347.267 281.194 347.234 281.116C347.201 281.038 347.2 280.95 347.232 280.872C353.52 265.392 365.488 258.92 370.944 257.672C370.985 257.663 371.027 257.661 371.069 257.668C371.11 257.675 371.15 257.69 371.186 257.712C371.221 257.735 371.252 257.764 371.277 257.798C371.301 257.832 371.319 257.871 371.328 257.912C371.337 257.953 371.339 257.995 371.332 258.037C371.325 258.078 371.31 258.118 371.288 258.154C371.265 258.189 371.236 258.22 371.202 258.245C371.168 258.269 371.129 258.287 371.088 258.296C365.744 259.528 354.008 265.88 347.824 281.12C347.793 281.184 347.741 281.235 347.678 281.266C347.614 281.296 347.541 281.304 347.472 281.288Z" fill="white"/>
<path d="M379.296 281.472C378.76 282.688 377.432 283.328 376.2 283.824C374.968 284.32 373.624 284.856 372.952 286.008C371.608 288.328 373.816 291.608 372.376 293.856C372.037 294.309 371.61 294.688 371.12 294.971C370.631 295.254 370.089 295.436 369.528 295.504C368.608 295.672 367.672 295.672 366.744 295.752C366.3 295.746 365.856 295.711 365.416 295.648C364.123 295.36 362.772 295.503 361.568 296.056C359.72 297.096 359.168 299.424 358.032 301.224C357.338 302.284 356.423 303.181 355.35 303.855C354.278 304.529 353.072 304.963 351.816 305.128C351.016 305.232 349.416 305.384 348.616 304.912C348.553 304.881 348.494 304.844 348.44 304.8C348.32 304.672 348.176 304.504 348.112 304.416C348.108 304.398 348.108 304.378 348.112 304.36C347.784 303.152 348.32 301.904 348.344 300.656V300.432C348.288 298.984 348.248 297.544 348.216 296.104C348.147 293.437 348.12 290.771 348.136 288.104C348.136 286.376 347.944 284.488 348.68 282.864C349.48 281.072 351.496 281.032 352.256 279.28C352.56 278.576 352.72 277.832 353.016 277.12C353.473 276.085 354.206 275.195 355.134 274.548C356.063 273.9 357.151 273.52 358.28 273.448C361.792 273.272 364.936 276.112 368.448 275.848C369.352 275.776 370.24 275.496 371.136 275.336C373.976 274.8 377.264 275.608 378.864 278.016C379.215 278.512 379.438 279.087 379.514 279.69C379.589 280.293 379.514 280.905 379.296 281.472Z" fill="#40FF90"/>
<path d="M347.76 298.816C347.684 298.794 347.62 298.743 347.582 298.674C347.543 298.605 347.532 298.524 347.552 298.448C352.4 280.256 371.552 277.648 376.056 277.952C376.096 277.954 376.134 277.964 376.17 277.981C376.206 277.999 376.238 278.023 376.264 278.053C376.29 278.083 376.31 278.117 376.322 278.155C376.335 278.193 376.339 278.232 376.336 278.272C376.328 278.35 376.29 278.421 376.231 278.472C376.171 278.523 376.094 278.549 376.016 278.544C371.624 278.232 352.872 280.8 348.128 298.608C348.106 298.684 348.055 298.748 347.986 298.786C347.917 298.825 347.836 298.836 347.76 298.816Z" fill="white"/>
<path d="M369.064 289.6C369.003 289.592 368.947 289.563 368.904 289.52C367.133 287.985 365.046 286.861 362.79 286.226C360.535 285.591 358.167 285.462 355.856 285.848C355.778 285.855 355.7 285.833 355.638 285.786C355.576 285.738 355.534 285.669 355.52 285.592C355.508 285.514 355.528 285.434 355.574 285.37C355.62 285.305 355.69 285.262 355.768 285.248C358.178 284.847 360.648 284.984 362.999 285.649C365.35 286.314 367.525 287.491 369.368 289.096C369.396 289.124 369.419 289.157 369.434 289.193C369.449 289.229 369.457 289.268 369.457 289.308C369.457 289.348 369.449 289.387 369.434 289.423C369.419 289.459 369.396 289.492 369.368 289.52C369.332 289.563 369.283 289.594 369.229 289.608C369.174 289.623 369.117 289.62 369.064 289.6Z" fill="white"/>
<path d="M301.696 64L304.24 64.976V59.376C304.24 54.928 307.784 53.864 311.632 56.088C315.488 58.312 318.608 63.712 318.608 68.16V68.96C319.144 68.7961 319.711 68.7556 320.265 68.8415C320.819 68.9274 321.347 69.1375 321.808 69.456C323.269 70.4087 324.485 71.6928 325.357 73.2038C326.228 74.7148 326.731 76.4101 326.824 78.152V78.52L330.376 80.568C331.337 81.1953 332.137 82.0399 332.711 83.0336C333.285 84.0273 333.617 85.1422 333.68 86.288C333.68 88.4 332.2 89.256 330.376 88.2L301.696 71.632C300.734 71.0062 299.934 70.1617 299.362 69.1676C298.789 68.1734 298.459 67.0578 298.4 65.912C298.4 63.808 299.864 62.952 301.696 64Z" fill="#E6E6E6"/>
<path d="M335.768 59.568L340.384 62.232C340.359 62.0303 340.345 61.8273 340.344 61.624V60.288C340.344 57.888 342.008 56.944 344.072 58.136C344.959 58.679 345.718 59.4077 346.296 60.272C346.632 57.28 348.984 56.168 351.832 57.808C353.46 58.867 354.815 60.2945 355.788 61.9749C356.761 63.6553 357.324 65.5413 357.432 67.48V69.48C357.453 70.2791 357.291 71.0725 356.96 71.8L360.8 74.008C361.398 74.4049 361.895 74.9366 362.251 75.5605C362.607 76.1843 362.811 76.8828 362.848 77.6C362.848 78.92 361.92 79.456 360.776 78.8L335.768 64.4C335.163 64.0059 334.66 63.4743 334.3 62.8486C333.94 62.223 333.733 61.521 333.696 60.8C333.696 59.448 334.624 58.912 335.768 59.568Z" fill="#E6E6E6"/>
<path d="M317.896 180.984C314.536 186.664 311.304 191.6 309.032 193.968C304.72 195.968 294.592 199.056 290.632 199.568C289.936 199.657 289.232 199.492 288.648 199.104C287.088 198.08 285.88 197.912 284.24 197.344C282.952 196.904 282.408 196.288 282.168 196.544C281.92 196.835 281.795 197.211 281.821 197.592C281.846 197.973 282.02 198.329 282.304 198.584C282.919 199.169 283.601 199.679 284.336 200.104C282.579 200.54 280.747 200.573 278.976 200.2C275.544 199.296 273.928 200.944 276.248 204.672C277.048 206 280.344 208.136 286.968 207.56C289.331 207.433 291.684 207.165 294.016 206.76C300.368 205.4 307.432 204.088 311.776 202.76C313.392 202.125 314.838 201.122 316 199.832C323.304 191.504 325.728 185.568 328.928 180.176L328.656 171.376C323.472 171.2 320.704 176.232 317.896 180.984Z" fill="#FFA8A7"/>
<path d="M329.544 171.2C328.041 170.989 326.508 171.192 325.113 171.789C323.717 172.385 322.51 173.352 321.624 174.584C318.072 179.136 311.784 190.064 311.784 190.064C311.784 190.064 313.84 195.544 319.392 196.464L328.312 184.416C328.312 184.416 332.536 176.048 329.544 171.2Z" fill="#455A64"/>
<path d="M348.832 294.032H343.016V304.4H348.832V294.032Z" fill="#FFA8A7"/>
<path d="M328.672 293.48L322.864 293.688L322.568 282.712L328.672 282.504V293.48Z" fill="#FFA8A7"/>
<path d="M349.648 204.28C349.648 210.056 348.8 256.592 348.8 256.592C348.928 258.256 350.4 261.328 350.104 267.72C349.664 276.4 349.08 299.216 349.08 299.216C348.082 299.727 346.98 300.004 345.859 300.026C344.737 300.048 343.626 299.815 342.608 299.344C342.608 299.344 337.888 267.344 336.848 258.776C335.936 251.264 333.6 226.4 333.6 226.4L330.456 255.792C331.123 258.946 331.365 262.174 331.176 265.392C330.904 269.392 329.032 290.096 329.032 290.096C328.027 290.689 326.901 291.045 325.738 291.138C324.575 291.231 323.406 291.058 322.32 290.632C322.32 290.632 319.008 259.432 318.944 255.768C318.864 251.608 320.88 204.232 320.88 204.232L349.648 204.28Z" fill="#37474F"/>
<path d="M343.016 301.408V300.544C342.456 300.792 341.168 305.928 338.856 308.12C337.024 309.864 334.528 311.872 333.888 313.816C333.248 315.76 337.368 316.952 339.088 316.64C341.072 316.272 344.528 314.808 345.392 313.44C346.256 312.072 346.664 310.088 347.368 309.096C348.072 308.104 349.696 307 350.072 305.848C350.189 304.77 350.078 303.68 349.744 302.648C349.472 301.576 349.184 300.4 348.832 300.504V301.16C348.012 301.833 346.981 302.196 345.92 302.184C345.072 302.256 343.008 302.08 343.016 301.408Z" fill="#263238"/>
<path d="M322.8 291.816C322.496 291.816 322.248 292.272 321.584 293.024C320.597 294.063 319.442 294.928 318.168 295.584C315.992 296.72 311.768 298.464 309.84 299.368C308.64 299.928 308.696 301.432 309.936 302.288C311.176 303.144 314.16 303.76 317.744 302.928C319.696 302.472 322.24 300.592 323.856 300.696C325.472 300.8 328.472 300.768 329.664 299.896C330.856 299.024 330.376 297.216 330.04 295.656C329.672 293.944 329.24 291.28 328.672 291.4V292C327.976 293.104 324.368 293.552 322.832 292.744L322.8 291.816Z" fill="#263238"/>
<path d="M333.6 226.4C330.575 225.41 327.809 223.756 325.504 221.56C325.504 221.56 327.104 224.608 331.712 227.448L330.72 253.696L333.6 226.4Z" fill="#263238"/>
<path d="M346.4 172.048C346.4 172.048 351.2 173.152 350.856 181.824L349.856 195.624V216.344C345.584 221.192 326.656 220.84 320.136 215.96C320.136 215.96 320.872 191.44 321.312 182C321.624 175.296 323.168 171.92 329.76 171.184L337.864 171.536L346.4 172.048Z" fill="#40FF90"/>
<path d="M340.288 154.032C340.316 155.193 340.113 156.348 339.692 157.43C339.271 158.513 338.64 159.501 337.836 160.338C337.031 161.176 336.069 161.846 335.004 162.309C333.939 162.773 332.793 163.021 331.632 163.04C326.832 163.04 324.016 158.896 322.976 154.032C321.056 145.128 326.848 145.016 331.632 145.016C333.975 145.064 336.203 146.041 337.827 147.732C339.45 149.423 340.335 151.689 340.288 154.032Z" fill="#263238"/>
<path d="M344.704 157.672C344.704 157.672 343.376 164.168 342.84 165.24C342.503 165.885 341.93 166.375 341.24 166.608L341.336 162.04L344.704 157.672Z" fill="#263238"/>
<path d="M343.032 148.368C343.032 148.368 343.984 148.128 345 149.712C345.864 151.064 346.064 154.104 344.704 157.712L342.2 158.016L343.032 148.368Z" fill="#263238"/>
<path d="M343.952 149.688L347.024 149.744C347.045 149.545 347.025 149.345 346.964 149.154C346.904 148.964 346.805 148.788 346.674 148.638C346.542 148.488 346.381 148.366 346.201 148.281C346.02 148.196 345.824 148.15 345.624 148.144C345.204 148.15 344.801 148.311 344.492 148.596C344.184 148.881 343.991 149.27 343.952 149.688Z" fill="#263238"/>
<path d="M344.328 148.96L346.6 146.776C346.469 146.622 346.308 146.496 346.126 146.407C345.944 146.319 345.746 146.268 345.543 146.26C345.341 146.252 345.139 146.286 344.951 146.359C344.762 146.433 344.591 146.545 344.448 146.688C344.147 146.983 343.967 147.38 343.945 147.801C343.923 148.221 344.059 148.635 344.328 148.96Z" fill="#263238"/>
<path d="M341.448 157.976C341.952 158.288 342.664 157.288 343.288 156.608C343.912 155.928 345.848 155.304 346.856 157.512C347.864 159.72 346.144 161.904 344.704 162.624C342.12 163.904 341.304 162.04 341.304 162.04L341.088 172.328C337.456 177.928 329.216 177.752 332.184 172.056V168.928C330.963 169.131 329.723 169.195 328.488 169.12C326.472 168.8 325.208 167.144 324.592 164.872C323.616 161.224 323.24 158.28 324.072 151.104C324.984 143.248 333.768 143.16 338.472 146.304C343.176 149.448 341.448 157.976 341.448 157.976Z" fill="#FFA8A7"/>
<path d="M330.504 149.88C332.6 149.672 334.672 149.24 336.776 149.08C337.23 149.025 337.689 149.047 338.136 149.144C339.736 149.584 339.544 151.456 339.8 152.76C340.24 155.016 340.6 158.832 341.448 158.848C341.704 158.848 342.664 157.192 343.288 156.6C343.631 156.09 343.825 155.494 343.848 154.88C344.008 153.952 344.088 153 344.16 152.056C344.224 151.256 344.304 150.456 344.304 149.656C344.341 148.752 344.268 147.847 344.088 146.96C343.887 146.206 343.503 145.513 342.968 144.944L342.808 144.768C341.754 143.666 340.474 142.803 339.056 142.24C337.016 141.476 334.877 141.01 332.704 140.856C330.534 140.702 328.374 140.435 326.232 140.056C326.109 140.02 325.979 140.02 325.856 140.056C325.769 140.104 325.696 140.173 325.643 140.257C325.59 140.341 325.558 140.437 325.552 140.536C325.464 141.033 325.519 141.545 325.71 142.012C325.901 142.479 326.221 142.883 326.632 143.176C325.184 143.288 323.52 142.536 322.128 142.152C322.015 142.104 321.894 142.08 321.772 142.08C321.65 142.08 321.529 142.104 321.416 142.152C321.276 142.25 321.177 142.395 321.136 142.56C321.035 142.936 321.021 143.33 321.096 143.712C321.223 144.87 321.654 145.974 322.344 146.912C323.422 148.316 324.946 149.312 326.664 149.736C327.929 149.98 329.224 150.028 330.504 149.88Z" fill="#263238"/>
<path d="M332.192 168.928C332.192 168.928 336.688 167.984 338.256 167.112C339.19 166.601 339.948 165.82 340.432 164.872C340.196 165.825 339.775 166.722 339.192 167.512C338.048 169.048 332.192 170.168 332.192 170.168V168.928Z" fill="#F28F8F"/>
<path d="M333.272 156.8C333.263 157.047 333.353 157.287 333.52 157.469C333.688 157.65 333.921 157.758 334.168 157.768C334.364 157.784 334.56 157.741 334.731 157.643C334.902 157.546 335.039 157.399 335.126 157.222C335.212 157.046 335.242 156.847 335.213 156.652C335.185 156.458 335.098 156.277 334.964 156.132C334.831 155.988 334.657 155.887 334.465 155.844C334.273 155.8 334.073 155.815 333.89 155.887C333.707 155.96 333.55 156.085 333.44 156.248C333.329 156.411 333.271 156.603 333.272 156.8Z" fill="#263238"/>
<path d="M334.712 152.92L336.64 154.032C336.78 153.758 336.812 153.441 336.729 153.144C336.646 152.848 336.454 152.593 336.192 152.432C336.064 152.36 335.923 152.316 335.777 152.302C335.631 152.288 335.484 152.304 335.345 152.35C335.205 152.396 335.077 152.47 334.968 152.568C334.859 152.667 334.772 152.786 334.712 152.92Z" fill="#263238"/>
<path d="M332.592 163.288L330.536 164.088C330.577 164.229 330.647 164.36 330.741 164.473C330.835 164.586 330.952 164.678 331.083 164.744C331.214 164.81 331.358 164.848 331.505 164.857C331.651 164.865 331.798 164.843 331.936 164.792C332.216 164.671 332.439 164.449 332.561 164.17C332.683 163.89 332.694 163.575 332.592 163.288Z" fill="#F28F8F"/>
<path d="M325 153.744L326.76 152.336C326.681 152.213 326.577 152.108 326.455 152.028C326.333 151.948 326.195 151.894 326.051 151.871C325.907 151.848 325.76 151.855 325.619 151.892C325.477 151.93 325.346 151.996 325.232 152.088C324.997 152.287 324.843 152.566 324.8 152.872C324.758 153.177 324.829 153.488 325 153.744Z" fill="#263238"/>
<path d="M325.776 156.536C325.79 156.711 325.855 156.878 325.962 157.017C326.07 157.156 326.215 157.261 326.381 157.318C326.547 157.376 326.726 157.384 326.896 157.341C327.067 157.298 327.221 157.207 327.34 157.078C327.46 156.949 327.539 156.789 327.568 156.616C327.598 156.442 327.576 156.264 327.506 156.103C327.436 155.942 327.321 155.805 327.174 155.709C327.027 155.612 326.856 155.561 326.68 155.56C326.556 155.564 326.435 155.593 326.322 155.644C326.21 155.695 326.108 155.769 326.024 155.859C325.94 155.95 325.875 156.057 325.832 156.173C325.79 156.289 325.771 156.412 325.776 156.536Z" fill="#263238"/>
<path d="M330.6 155.784L330.496 161.472L327.264 160.736L330.6 155.784Z" fill="#F28F8F"/>
<path d="M253.848 203.424L258.864 200.528L260.848 198.12L255.84 201.016L253.848 203.424Z" fill="#40FF90"/>
<path opacity="0.4" d="M253.848 203.424L258.864 200.528L260.848 198.12L255.84 201.016L253.848 203.424Z" fill="black"/>
<path d="M267.488 211.296L272.504 208.4L276.688 204.696L271.68 207.584L267.488 211.296Z" fill="#40FF90"/>
<path opacity="0.4" d="M267.488 211.296L272.504 208.4L276.688 204.696L271.68 207.584L267.488 211.296Z" fill="black"/>
<path d="M310.096 221.288C311.282 222.878 312 224.768 312.168 226.744C310.987 225.151 310.27 223.263 310.096 221.288ZM321.752 221.44C320.064 209.96 313.896 198.608 306.552 194.36C303.024 192.32 299.76 192.248 297.144 193.776L292.424 196.496L292.16 196.656C291.95 196.772 291.747 196.9 291.552 197.04C291.164 197.307 290.8 197.607 290.464 197.936L290.304 198.088C290.16 198.232 290.008 198.4 289.872 198.56C289.736 198.72 289.528 198.968 289.368 199.184C289.028 199.631 288.721 200.102 288.448 200.592C288.304 200.84 288.168 201.104 288.04 201.392L246.816 177.6L241.808 180.488V183.688L242.232 183.928L242.632 184.16V184.8L241.832 185.272V187.128L247.888 199.928L253.872 203.392L255.864 200.992L261.144 204.152L264.176 209.344L267.52 211.272L271.704 207.56L276.84 210.528L278.568 217.656L287.2 222.648C287.627 224.462 288.161 226.249 288.8 228C288.856 228.176 288.928 228.36 289 228.56C291.864 236.08 296.416 242.52 301.552 245.488C302.168 245.853 302.812 246.166 303.48 246.424C303.833 246.564 304.193 246.685 304.56 246.784C304.88 246.869 305.2 246.941 305.52 247C306.53 247.184 307.566 247.184 308.576 247L308.992 246.896C309.191 246.856 309.386 246.8 309.576 246.728L310.024 246.552C310.183 246.495 310.335 246.422 310.48 246.336C310.628 246.272 310.772 246.2 310.912 246.12L311.12 245.992C311.158 245.98 311.193 245.961 311.224 245.936C312.368 245.28 315.184 243.648 315.952 243.216C319.76 241.008 322.224 235.424 322.224 227.528C322.218 225.49 322.06 223.455 321.752 221.44Z" fill="#40FF90"/>
<path d="M308.632 230.976C306.648 229.832 305.048 226.44 305.048 223.4C305.048 220.36 306.648 218.816 308.632 219.952C310.616 221.088 312.208 224.488 312.208 227.536C312.208 230.584 310.608 232.12 308.632 230.976ZM316.736 224.328C315.056 212.856 308.888 201.496 301.536 197.256C298.128 195.288 294.976 195.144 292.416 196.496L292.152 196.656C291.942 196.772 291.739 196.9 291.544 197.04C291.156 197.307 290.792 197.607 290.456 197.936L290.296 198.088C290.152 198.232 290 198.4 289.864 198.56C289.728 198.72 289.52 198.968 289.36 199.184C289.02 199.631 288.713 200.102 288.44 200.592C288.296 200.84 288.16 201.104 288.032 201.392C287.286 202.938 286.748 204.577 286.432 206.264L241.8 180.488V183.688L242.224 183.928L242.624 184.16V184.8L241.824 185.272V187.128L247.88 199.928L253.864 203.392L255.856 200.992L261.136 204.152L264.168 209.344L267.512 211.272L271.696 207.56L276.832 210.528L278.56 217.656L287.2 222.648C287.627 224.462 288.161 226.249 288.8 228C288.856 228.176 288.928 228.36 289 228.56C291.864 236.08 296.416 242.52 301.552 245.488C302.168 245.853 302.812 246.166 303.48 246.424C303.833 246.564 304.193 246.685 304.56 246.784C304.88 246.869 305.2 246.941 305.52 247C306.53 247.184 307.566 247.184 308.576 247L308.992 246.896C309.191 246.856 309.386 246.8 309.576 246.728L310.024 246.552C310.183 246.495 310.335 246.422 310.48 246.336C310.628 246.272 310.772 246.2 310.912 246.12L311.12 245.992C311.158 245.98 311.193 245.961 311.224 245.936C314.872 243.632 317.216 238.128 317.216 230.424C317.203 228.383 317.042 226.346 316.736 224.328Z" fill="#40FF90"/>
<path opacity="0.4" d="M312.208 227.528C312.208 230.576 310.608 232.12 308.632 230.976C306.656 229.832 305.048 226.448 305.048 223.4C305.048 220.352 306.648 218.808 308.632 219.952C309.203 220.3 309.701 220.756 310.096 221.296C310.268 223.271 310.985 225.16 312.168 226.752C312.197 227.01 312.211 227.269 312.208 227.528Z" fill="black"/>
<path opacity="0.4" d="M322.208 227.52C322.208 235.416 319.744 241 315.936 243.208C315.136 243.64 312.352 245.272 311.208 245.928C314.856 243.624 317.2 238.12 317.2 230.416C317.191 228.378 317.036 226.344 316.736 224.328C315.056 212.856 308.888 201.496 301.536 197.256C298.128 195.288 294.976 195.144 292.416 196.496L297.136 193.776C299.752 192.248 303.016 192.32 306.544 194.36C313.896 198.608 320.064 209.96 321.744 221.44C322.049 223.452 322.204 225.485 322.208 227.52Z" fill="white"/>
<path d="M317.2 230.4C317.2 238.104 314.856 243.608 311.208 245.912C312.352 245.256 315.168 243.624 315.936 243.192C319.744 240.984 322.208 235.4 322.208 227.504C322.208 227.216 322.208 226.92 322.208 226.624L317.2 229.52C317.192 229.832 317.2 230.12 317.2 230.4Z" fill="#40FF90"/>
<path opacity="0.1" d="M317.2 230.4C317.2 238.104 314.856 243.608 311.208 245.912C312.352 245.256 315.168 243.624 315.936 243.192C319.744 240.984 322.208 235.4 322.208 227.504C322.208 227.216 322.208 226.92 322.208 226.624L317.2 229.52C317.192 229.832 317.2 230.12 317.2 230.4Z" fill="black"/>
<path opacity="0.15" d="M286.624 209.536V211.16L241.808 185.288L242.632 184.808V184.136L286.624 209.536Z" fill="black"/>
<path opacity="0.15" d="M286.624 210.208V211.16L241.808 185.288L242.632 184.808V184.8L286.624 210.208Z" fill="black"/>
<path opacity="0.15" d="M306.112 243.2C304.413 243.156 302.757 242.662 301.312 241.768C294.008 237.552 288.064 225.008 288.064 213.808C288.064 207.272 290.04 202.392 293.488 200.4C295.888 199.008 298.728 199.184 301.712 200.904C309.008 205.12 314.952 217.704 314.952 228.904C314.952 235.432 312.976 240.32 309.528 242.304C308.488 242.898 307.31 243.207 306.112 243.2ZM296.952 200.28C295.886 200.274 294.837 200.55 293.912 201.08C290.768 202.896 288.888 207.656 288.888 213.8C288.888 224.744 294.648 237 301.736 241.064C304.448 242.664 307.016 242.808 309.152 241.576C312.296 239.76 314.176 235.008 314.176 228.864C314.176 217.912 308.416 205.664 301.336 201.592C300.013 200.787 298.5 200.345 296.952 200.312V200.28Z" fill="black"/>
<path opacity="0.4" d="M288 201.376C287.254 202.922 286.716 204.561 286.4 206.248L241.768 180.472L246.776 177.584L288 201.376Z" fill="white"/>
<path d="M346.008 203.88C348.344 199.456 351.016 189.52 352.344 184.504C354.232 177.384 351.176 172.904 347.704 172.72C345.536 173.056 338.392 199.032 338.392 199.032C337.592 199.664 326.736 205.176 323.248 206.56C322.624 206.796 321.936 206.796 321.312 206.56C319.64 205.952 318.496 206.064 316.856 205.904C315.568 205.776 314.92 205.32 314.752 205.592C314.599 205.93 314.58 206.312 314.697 206.664C314.814 207.015 315.059 207.309 315.384 207.488C316.09 207.899 316.842 208.227 317.624 208.464C316.222 208.889 314.761 209.086 313.296 209.048C309.936 208.976 308.728 210.432 311.336 213.848C312.936 215.976 315.584 216.648 321.496 214.608C323.192 214.016 325.496 212.872 327.648 212.096C332.08 210.496 333.248 210.304 336.624 209.16C341.544 207.496 344.968 205.848 346.008 203.88Z" fill="#FFA8A7"/>
<path d="M346.4 172.048C348.44 172.328 350.4 172.784 351.608 174.448C352.816 176.112 353.784 178.448 352.6 184.808C351.693 189.281 350.48 193.686 348.968 197.992C348.968 197.992 344.216 200.024 339.168 194.872L342.64 181.448C342.64 181.448 343.2 172.72 346.4 172.048Z" fill="#455A64"/>
</svg>
