<svg width="42" height="42" viewBox="0 0 42 42" fill="none" xmlns="http://www.w3.org/2000/svg">
<path d="M17.5 24.5L21 21L17.5 24.5ZM21 21L24.5 17.5L21 21ZM21 21L17.5 17.5L21 21ZM21 21L24.5 24.5L21 21ZM36.75 21C36.75 23.0683 36.3426 25.1164 35.5511 27.0273C34.7596 28.9381 33.5995 30.6744 32.1369 32.1369C30.6744 33.5995 28.9381 34.7596 27.0273 35.5511C25.1164 36.3426 23.0683 36.75 21 36.75C18.9317 36.75 16.8836 36.3426 14.9727 35.5511C13.0619 34.7596 11.3256 33.5995 9.86307 32.1369C8.40055 30.6744 7.24041 28.9381 6.4489 27.0273C5.65739 25.1164 5.25 23.0683 5.25 21C5.25 16.8228 6.90937 12.8168 9.86307 9.86307C12.8168 6.90937 16.8228 5.25 21 5.25C25.1772 5.25 29.1832 6.90937 32.1369 9.86307C35.0906 12.8168 36.75 16.8228 36.75 21Z" stroke="white" stroke-width="2" stroke-linecap="round" stroke-linejoin="round"/>
</svg>
